<svg xmlns="http://www.w3.org/2000/svg" width="64" height="64" viewBox="0 0 64 64">
  <defs>
    <radialGradient id="g" cx="50%" cy="50%" r="50%">
      <stop offset="0%" stop-color="#3a3f47"/>
      <stop offset="60%" stop-color="#1f242b"/>
      <stop offset="100%" stop-color="#0f1318"/>
    </radialGradient>
  </defs>
  <!-- Tire outer -->
  <circle cx="32" cy="32" r="28" fill="url(#g)"/>
  <!-- Tread marks -->
  <g stroke="#2a2f36" stroke-width="3" stroke-linecap="round">
    <path d="M10 18 L18 10"/>
    <path d="M46 10 L54 18"/>
    <path d="M10 46 L18 54"/>
    <path d="M46 54 L54 46"/>
    <path d="M8 32 H20"/>
    <path d="M44 32 H56"/>
    <path d="M32 8 V20"/>
    <path d="M32 44 V56"/>
  </g>
  <!-- Sidewall ring -->
  <circle cx="32" cy="32" r="22" fill="none" stroke="#171b21" stroke-width="4"/>
  <!-- Rim -->
  <circle cx="32" cy="32" r="12" fill="#cfd3da"/>
  <!-- Rim spokes -->
  <g stroke="#8f98a3" stroke-width="3">
    <line x1="32" y1="20" x2="32" y2="44"/>
    <line x1="20" y1="32" x2="44" y2="32"/>
    <line x1="24" y1="24" x2="40" y2="40"/>
    <line x1="40" y1="24" x2="24" y2="40"/>
  </g>
  <!-- Hub -->
  <circle cx="32" cy="32" r="4" fill="#ffffff"/>
</svg>
